# xmcd CD database file
# Generated: Don Mai 2 19:54:36 2002 by KSCD
# 
# Track frame offsets:
#       150
#       16770
#       29832
#       42848
#       55747
#       68759
#       80362
#       95122
#       109839
#       125403
#       137850
#       152692
#       165399
#       178949
#       187866
#
# Disc length: 2686 seconds
#
# Revision: 1
# Processed by: cddbd v1.4PL0 Copyright (c) Steve Scherf et al.
# Submitted via: Kscd 1.3.3
#
DISCID=c40a7c0f
DTITLE=Tennessee - Guitars On Fire
DYEAR=1900
DGENRE=
TTITLE0=Gibson Hootenanny (Amapola-Action-Rebel Rouser-FBI)
TTITLE1=Tennessee
TTITLE2=Vagabond
TTITLE3=Why Wait
TTITLE4=Intercity
TTITLE5=3rd Man Theme
TTITLE6=Deep In The Heart Of Texas
TTITLE7=Fuerteventura
TTITLE8=Dizzy Duck
TTITLE9=Quartermasters Stores
TTITLE10=Tiger Rag
TTITLE11=Breeze
TTITLE12=Homeless
TTITLE13=Campfire
TTITLE14=Nevada
EXTD=
EXTT0=
EXTT1=
EXTT2=
EXTT3=
EXTT4=
EXTT5=
EXTT6=
EXTT7=
EXTT8=
EXTT9=
EXTT10=
EXTT11=
EXTT12=
EXTT13=
EXTT14=
PLAYORDER=
